HIERARCHY
ROOT Hips
{
	OFFSET -3.958830 18.904000 13.208200
	CHANNELS 6 Xposition Yposition Zposition Zrotation Yrotation Xrotation 
	JOINT LHipJoint
	{
		OFFSET 0.000000 0.000000 0.000000
		CHANNELS 3 Zrotation Yrotation Xrotation
		JOINT LeftUpLeg
		{
			OFFSET 1.800000 -1.400000 0.085000
			CHANNELS 3 Zrotation Yrotation Xrotation
			JOINT LeftLeg
			{
				OFFSET 2.215000 -6.000000 0.000000
				CHANNELS 3 Zrotation Yrotation Xrotation
				JOINT LeftFoot
				{
					OFFSET 2.500000 -6.900000 0.000000
					CHANNELS 3 Zrotation Yrotation Xrotation
					JOINT LeftToeBase
					{
						OFFSET 0.200000 -0.500000 1.950000
						CHANNELS 3 Zrotation Yrotation Xrotation
						End Site
						{
							OFFSET 0.000000 0.000000 0.000000
						}
					}
				}
			}
		}
	}
	JOINT RHipJoint
	{
		OFFSET 0.000000 0.000000 0.000000
		CHANNELS 3 Zrotation Yrotation Xrotation
		JOINT RightUpLeg
		{
			OFFSET -1.800000 -1.400000 0.085000
			CHANNELS 3 Zrotation Yrotation Xrotation
			JOINT RightLeg
			{
				OFFSET -2.215000 -6.000000 0.000000
				CHANNELS 3 Zrotation Yrotation Xrotation
				JOINT RightFoot
				{
					OFFSET -2.500000 -6.900000 0.000000
					CHANNELS 3 Zrotation Yrotation Xrotation
					JOINT RightToeBase
					{
						OFFSET -0.200000 -0.500000 1.950000
						CHANNELS 3 Zrotation Yrotation Xrotation
						End Site
						{
							OFFSET 0.000000 0.000000 0.000000
						}
					}
				}
			}
		}
	}
	JOINT LowerBack
	{
		OFFSET 0.000000 0.000000 0.000000
		CHANNELS 3 Zrotation Yrotation Xrotation
		JOINT Spine
		{
			OFFSET -0.087000 1.940000 -0.288900
			CHANNELS 3 Zrotation Yrotation Xrotation
			JOINT Spine1
			{
				OFFSET 0.000000 1.950000 0.060000
				CHANNELS 3 Zrotation Yrotation Xrotation
				JOINT Neck
				{
					OFFSET 0.000000 0.000000 0.000000
					CHANNELS 3 Zrotation Yrotation Xrotation
					JOINT Neck1
					{
						OFFSET 0.000000 1.600000 0.340000
						CHANNELS 3 Zrotation Yrotation Xrotation
						JOINT Head
						{
							OFFSET 0.000000 1.667000 -0.240000
							CHANNELS 3 Zrotation Yrotation Xrotation
							End Site
							{
								OFFSET 0.000000 0.000000 0.000000
							}
						}
					}
				}
				JOINT LeftShoulder
				{
					OFFSET 0.000000 0.000000 0.000000
					CHANNELS 3 Zrotation Yrotation Xrotation
					JOINT LeftArm
					{
						OFFSET 2.700000 1.550000 -0.730000
						CHANNELS 3 Zrotation Yrotation Xrotation
						JOINT LeftForeArm
						{
							OFFSET 5.450000 0.000000 0.000000
							CHANNELS 3 Zrotation Yrotation Xrotation
							JOINT LeftHand
							{
								OFFSET 3.450000 0.000000 0.000000
								CHANNELS 3 Zrotation Yrotation Xrotation
								JOINT LeftHandIndex1
								{
									OFFSET 0.750000 0.000000 0.000000
									CHANNELS 3 Zrotation Yrotation Xrotation
									End Site
									{
										OFFSET 0.000000 0.000000 0.000000
									}
								}
							}
						}
					}
				}
				JOINT RightShoulder
				{
					OFFSET 0.000000 0.000000 0.000000
					CHANNELS 3 Zrotation Yrotation Xrotation
					JOINT RightArm
					{
						OFFSET -2.700000 1.550000 -0.730000
						CHANNELS 3 Zrotation Yrotation Xrotation
						JOINT RightForeArm
						{
							OFFSET -5.450000 0.000000 0.000000
							CHANNELS 3 Zrotation Yrotation Xrotation
							JOINT RightHand
							{
								OFFSET -3.450000 0.000000 0.000000
								CHANNELS 3 Zrotation Yrotation Xrotation
								JOINT RightHandIndex1
								{
									OFFSET -0.750000 0.000000 0.000000
									CHANNELS 3 Zrotation Yrotation Xrotation
									End Site
									{
										OFFSET 0.000000 0.000000 0.000000
									}
								}
							}
						}
					}
				}
			}
		}
	}
}
MOTION
Frames: 14
Frame Time: 0.016667
-0.468030 16.389040 -1.837480 -2.792715 17.331430 -2.700484 -15.353100 11.946857 4.121626 17.390707 -3.044660 -35.062808 -5.964325 14.666253 46.151419 -0.235735 10.355191 1.139822 0.120110 -0.596820 0.034260 18.324668 -10.159683 2.616747 -14.837749 6.001257 -22.539997 11.989541 -15.336108 47.755039 -0.749572 -8.818354 1.643226 0.044530 0.988070 0.141480 -3.618905 -1.078072 -8.242686 6.564104 2.916519 15.627662 -2.064266 4.958679 9.400209 0.509086 -4.852033 -8.520044 -10.147653 -0.266258 31.576970 1.443110 -7.490390 1.312210 -4.700267 -3.179055 2.785851 -4.366281 1.574992 -1.931331 127.376048 -18.979990 -41.037333 -4.347664 2.825915 0.513960 0.584280 -0.700340 0.263040 3.556224 9.356716 4.058972 -5.757666 2.650447 -9.047641 -126.249508 9.298833 -22.015774 1.653365 -2.142006 -0.745170 0.610700 0.351970 -0.324040 
-0.476120 16.367680 -1.877720 -2.878436 16.793107 -2.938788 -15.392346 11.987074 4.151019 17.631253 -2.807175 -35.324277 -5.831738 14.825402 46.484646 -0.197334 10.358136 1.101265 0.191730 -0.515720 0.099890 18.290438 -10.035875 2.690151 -14.926407 6.435756 -23.166684 12.169275 -15.513084 48.584458 -0.837932 -8.887706 1.595028 0.056370 0.894080 0.149470 -3.495882 -1.301897 -8.335970 5.695784 2.991800 17.341354 -1.956918 5.138063 9.657043 0.519032 -5.175333 -8.744257 -11.009993 0.375420 32.469140 2.957240 -7.366890 -1.152600 -5.279130 -3.484325 2.838687 -4.884073 1.983588 -2.484316 127.974591 -18.975390 -42.088516 -4.245991 2.847199 0.567170 0.500870 -0.614400 0.262010 4.115150 10.062847 4.351295 -5.562862 2.648937 -9.128797 -126.564337 11.306121 -26.336178 1.657992 -2.095902 -0.694380 0.581440 0.301880 -0.328910 
-0.475160 16.334990 -1.948170 -3.276453 16.288571 -3.271729 -15.403961 11.923503 4.279241 18.219365 -2.656496 -36.180429 -6.116585 15.386013 47.470425 -0.091933 10.544838 1.014050 0.258880 -0.420480 0.137920 18.299930 -9.867591 2.767958 -14.923271 6.928817 -24.054765 12.404977 -15.808337 49.590132 -0.931150 -9.004373 1.551126 0.068630 0.813910 0.150630 -3.478831 -1.465590 -8.500128 5.808429 2.511879 20.404818 -2.781854 5.161353 9.612835 0.478139 -6.145991 -8.815429 -12.990452 0.914544 32.788673 4.503100 -7.682190 -3.727750 -6.334179 -3.514908 2.593785 -4.851663 2.019210 -2.920789 128.101862 -19.990074 -44.310043 -4.151261 2.853851 0.590100 0.426460 -0.541490 0.270920 5.081387 10.891085 4.602076 -6.354959 2.285895 -9.079071 -127.057185 14.767249 -33.244250 1.663692 -2.025519 -0.628910 0.555700 0.249910 -0.312850 
-0.479930 16.297720 -2.027290 -3.413936 16.144381 -3.531514 -15.414880 11.844304 4.393957 18.388436 -2.792360 -37.275999 -5.831026 15.681233 48.975050 0.013239 10.709072 0.945475 0.319240 -0.321620 0.166370 18.312543 -9.694199 2.854453 -15.450103 7.271258 -25.030938 13.016365 -16.435411 50.617596 -1.028214 -9.199783 1.492075 0.089010 0.738740 0.125340 -3.468930 -1.622943 -8.641450 5.533542 1.942835 24.007608 -3.894148 5.049633 9.439743 0.458089 -7.097003 -8.825319 -14.831294 1.444290 32.510945 6.371230 -7.981530 -6.443690 -7.722777 -3.722795 2.329459 -4.548056 2.007808 -3.426432 128.800201 -21.168373 -47.518537 -4.052397 2.844617 0.602440 0.353050 -0.483890 0.281530 6.327823 11.797951 4.790276 -7.581122 1.529771 -9.099004 -128.663825 17.936831 -40.649960 1.674871 -1.962567 -0.577100 0.543200 0.193670 -0.295880 
-0.488170 16.262260 -2.095250 -3.605839 16.212663 -3.449318 -15.423986 11.687401 4.552130 18.773851 -2.976159 -38.722713 -5.963697 16.089205 50.123616 0.078655 10.912981 0.877347 0.357530 -0.270550 0.210470 18.342501 -9.512970 2.922520 -15.837267 7.542674 -26.211922 13.378098 -17.044114 51.682335 -1.122556 -9.391387 1.436029 0.095760 0.681280 0.111150 -3.483387 -1.700912 -8.771100 5.359139 1.261339 26.772467 -5.303634 4.701929 9.693305 0.691179 -7.670180 -8.939486 -16.103575 1.791098 32.592200 6.590260 -7.693800 -8.847560 -9.156135 -4.335089 2.094150 -4.034460 1.942607 -3.988714 129.373384 -22.317731 -50.660442 -3.982067 2.798784 0.639780 0.301280 -0.430750 0.284610 7.171790 12.577513 5.180990 -8.009437 0.940883 -8.870061 -131.326882 21.676247 -50.845952 1.656754 -1.876635 -0.558700 0.549590 0.155020 -0.302190 
-0.492530 16.234940 -2.168560 -4.076113 15.870535 -4.186080 -15.412000 11.590741 4.645178 19.418265 -2.923148 -39.303388 -6.151088 16.498710 51.098050 0.233259 11.051458 0.857337 0.406100 -0.177610 0.236640 18.373672 -9.421869 2.958598 -15.754660 7.811792 -26.532464 13.705412 -17.415015 52.428483 -1.213506 -9.516982 1.407898 0.102570 0.622970 0.094110 -3.536672 -1.689755 -8.852021 5.315178 0.592465 30.755983 -6.424933 4.343232 9.436708 0.787991 -8.361119 -9.029506 -17.154230 1.840717 31.457185 7.404300 -7.749970 -10.779770 -10.246974 -4.771596 1.894739 -3.612774 1.991533 -4.707027 130.076032 -23.884405 -54.815844 -3.890624 2.809391 0.618220 0.243740 -0.372720 0.317640 7.966518 13.430376 5.527845 -9.112680 0.153524 -8.616031 -134.719510 25.369865 -62.783176 1.698491 -1.840197 -0.496000 0.532210 0.075740 -0.264620 
-0.489030 16.213610 -2.236880 -4.647109 15.626344 -5.070948 -15.430341 11.551192 4.753252 20.120706 -2.917115 -39.865725 -6.234812 16.845410 52.108305 0.188660 11.349448 0.714194 0.335880 -0.314500 0.250860 18.372337 -9.319095 2.958114 -15.419009 8.145657 -26.571505 13.561410 -17.562315 53.179968 -1.230877 -9.588700 1.343804 0.040520 0.596230 0.116590 -3.499399 -1.810990 -8.917398 5.006022 0.356395 34.459955 -6.934946 4.416672 9.413440 1.032411 -8.577191 -9.225310 -17.630837 1.808692 31.204991 8.087870 -7.747480 -13.688870 -11.647798 -5.990974 1.946630 -3.743251 1.291380 -5.294984 130.907935 -25.218833 -59.447648 -3.901745 2.734313 0.720770 0.209810 -0.362150 0.230490 8.815076 14.650017 5.928113 -9.834457 -1.130001 -9.274749 -136.880178 28.020582 -71.871520 1.682910 -1.728244 -0.547440 0.521850 0.162890 -0.324970 
-0.484010 16.185190 -2.286100 -4.630770 15.615186 -4.749538 -15.446281 11.439608 4.846368 20.091266 -3.141324 -40.981325 -6.232288 17.008243 52.820015 0.275613 11.399325 0.691666 0.375930 -0.265160 0.275190 18.385075 -9.150519 3.052369 -16.299631 8.361034 -27.779880 14.466534 -18.209212 53.504649 -1.308952 -9.723997 1.286142 0.027110 0.521250 0.129300 -3.478694 -1.905723 -9.003815 4.321291 0.301796 36.536673 -7.326860 4.267242 9.185620 1.076214 -9.135036 -9.549634 -18.917139 1.863381 30.938868 9.543220 -8.005950 -16.194760 -12.588551 -6.901719 2.148692 -4.311825 0.572652 -5.937936 131.140818 -26.840594 -63.514148 -3.820959 2.757463 0.741600 0.142650 -0.302890 0.236810 9.674981 15.854986 6.342719 -10.112666 -1.877630 -9.631799 -137.824370 31.371010 -80.341198 1.720818 -1.715637 -0.488770 0.470520 0.118090 -0.312860 
-0.472790 16.165930 -2.319070 -4.810724 15.463856 -4.735618 -15.429019 11.345845 4.932175 20.442196 -3.275356 -41.389220 -6.839493 17.377106 53.067766 0.368478 11.473259 0.669817 0.370160 -0.273370 0.283640 18.412349 -9.105635 3.075726 -16.629071 8.385082 -28.177179 14.859041 -18.386130 53.312452 -1.329102 -9.696166 1.287605 -0.016730 0.465780 0.135250 -3.540258 -1.846542 -9.062530 4.232087 -0.074940 38.663589 -8.196589 3.881874 8.536054 1.253241 -9.637779 -10.060236 -20.110107 1.962157 30.751236 10.521910 -8.144060 -17.856180 -13.333727 -8.041839 2.333684 -4.315510 0.186481 -6.725074 130.495640 -28.388724 -65.989007 -3.764724 2.759379 0.758260 0.090880 -0.261760 0.227510 10.164019 17.158289 7.033874 -9.890596 -2.473853 -9.815552 -140.414330 33.462148 -89.383608 1.763707 -1.717230 -0.449530 0.425810 0.097050 -0.305840 
-0.451020 16.153010 -2.339130 -4.699379 15.569107 -4.714808 -15.396800 11.283786 4.961126 20.199727 -3.644040 -41.551121 -7.107987 17.416812 53.244306 0.430752 11.452047 0.682874 0.347470 -0.301900 0.277280 18.438439 -9.114950 3.116603 -17.421008 8.238247 -28.440206 15.475582 -18.809214 53.155013 -1.351210 -9.737920 1.286639 -0.069030 0.421870 0.127300 -3.629335 -1.738725 -9.112135 4.122129 -0.501889 40.309266 -9.195788 3.328421 7.676457 1.502998 -9.740641 -10.721044 -20.741674 2.304291 31.315242 11.175680 -7.972570 -18.500520 -14.108034 -9.252495 2.705661 -4.294908 0.635332 -7.308065 130.139727 -31.311694 -70.954538 -3.723161 2.735952 0.780500 0.053450 -0.237880 0.216760 10.630128 18.185259 7.822670 -8.467786 -3.036053 -9.918297 -141.437627 36.975446 -97.988764 1.798286 -1.696063 -0.428310 0.387950 0.085700 -0.309640 
-0.427880 16.131290 -2.336950 -4.562188 15.339417 -5.247769 -15.397911 11.342978 4.950027 20.031445 -3.806088 -41.150847 -7.008112 17.581317 54.121419 0.531320 11.555923 0.663734 0.335420 -0.311040 0.282870 18.422195 -9.137265 3.095042 -17.831872 8.120630 -27.932291 15.469244 -19.020149 53.560499 -1.384353 -9.815024 1.262727 -0.104590 0.389220 0.131270 -3.607502 -1.803516 -9.114348 3.509571 -0.487557 41.660541 -9.195455 3.076227 7.139295 1.700827 -9.850104 -11.163028 -21.196584 2.413021 31.564067 10.661510 -7.753770 -18.519090 -14.431578 -9.988276 3.030771 -4.803429 0.841365 -7.722806 129.739977 -33.471262 -74.317312 -3.697830 2.729954 0.776570 0.030430 -0.213030 0.211820 10.705773 19.098623 8.259939 -8.246016 -2.789345 -9.851338 -143.198793 40.061428 -106.413840 1.840382 -1.707056 -0.398640 0.355250 0.068180 -0.301560 
-0.411770 16.117740 -2.323340 -4.525513 15.281439 -5.774104 -15.413351 11.424336 4.950497 20.091413 -3.885962 -40.801133 -6.785782 17.699218 54.949705 0.561256 11.705918 0.608665 0.293070 -0.388710 0.286770 18.394631 -9.147887 3.051881 -17.867434 8.035525 -27.337999 15.146357 -19.081284 54.038733 -1.392376 -9.864790 1.238769 -0.157020 0.375240 0.148020 -3.549740 -1.938424 -9.114635 2.843099 -0.423036 42.462029 -8.864954 2.942665 6.693763 1.852546 -9.835660 -11.609954 -21.433421 2.592311 31.943037 10.342340 -7.445220 -18.691530 -14.444042 -10.496327 3.376494 -5.410494 1.441616 -8.017691 129.726482 -34.785851 -76.883631 -3.704955 2.711842 0.810880 0.020250 -0.208210 0.176010 10.578987 19.694540 8.683835 -7.416013 -2.984526 -10.010010 -143.772290 42.764514 -111.752056 1.855749 -1.683043 -0.407340 0.328920 0.099170 -0.324300 
-0.387540 16.095760 -2.292490 -4.706885 14.910765 -6.116781 -15.420640 11.438521 4.966484 20.489458 -3.714593 -40.604139 -6.793491 18.092295 55.763378 0.616622 11.897374 0.547733 0.298100 -0.388160 0.285210 18.392019 -9.137265 3.018468 -17.576291 8.085389 -27.131513 14.536968 -19.090332 54.937259 -1.429984 -9.960013 1.209522 -0.165380 0.368850 0.166470 -3.531586 -1.991182 -9.120353 2.924224 -0.461805 42.101003 -8.685957 2.866888 6.577371 1.856461 -10.099634 -11.744602 -22.104017 2.873843 31.913464 10.546890 -7.397670 -19.271630 -14.340301 -10.342348 3.467441 -5.616836 1.958892 -8.014297 129.443887 -35.706377 -77.924954 -3.700042 2.714558 0.821100 0.012370 -0.194970 0.178130 10.519226 19.769927 8.728622 -7.569912 -2.928277 -9.696080 -146.357631 43.807468 -117.851308 1.857956 -1.711885 -0.393850 0.315510 0.099780 -0.320320 
-0.362930 16.081490 -2.249930 -4.556420 14.329851 -6.629079 -15.415817 11.507683 4.925342 20.429213 -3.562945 -39.896578 -6.664387 18.495050 56.742418 0.671474 12.085397 0.490896 0.298460 -0.386000 0.289270 18.384959 -9.198851 2.964330 -17.391924 8.107294 -26.599675 13.537257 -18.829239 55.932192 -1.438274 -10.012826 1.201234 -0.162990 0.358070 0.147720 -3.528427 -1.999515 -9.084919 2.989989 -0.295122 41.616513 -8.600807 3.013506 6.516809 1.813133 -10.418255 -11.834902 -22.794220 3.006422 31.623848 10.655160 -7.408630 -19.667070 -14.123716 -9.989873 3.392582 -5.289793 2.408257 -7.938596 128.915479 -36.051523 -77.500155 -3.689433 2.698435 0.823400 0.001680 -0.199820 0.170560 10.417715 19.715368 8.842384 -7.581691 -3.555560 -9.558776 -147.342690 43.508954 -119.429723 1.861419 -1.721595 -0.399330 0.320050 0.097850 -0.325600 
